<svg width="10" height="29" viewBox="0 0 10 29" fill="none" xmlns="http://www.w3.org/2000/svg">
<path d="M6.38861 10.4734C6.38861 11.8114 6.38861 13.4418 4.54557 14.1063C6.43291 14.7532 6.38861 16.1266 6.38861 17.562V22.8785C6.38861 23.8886 6.7962 24.5 7.52279 24.6506C7.68244 24.7045 7.85064 24.7285 8.01899 24.7215H9.79114V28.2658H6.86709C3.7481 28.2658 2.02911 26.4937 2.02911 23.2063V16.9152C2.00699 16.5922 1.86458 16.2893 1.63 16.0662C1.39541 15.8431 1.08571 15.716 0.762025 15.7101H0V12.6H0.762025C1.09216 12.5956 1.40796 12.4644 1.64388 12.2334C1.87981 12.0024 2.01776 11.6895 2.02911 11.3595V4.97975C2.02911 1.74557 3.71266 0 6.86709 0H9.81772V3.49114H8.04557C7.87702 3.49163 7.70958 3.51854 7.54937 3.57089C6.82278 3.75696 6.41519 4.35949 6.41519 5.34304L6.38861 10.4734Z" fill="white"/>
</svg>
